<svg width="300" height="400" viewBox="0 0 300 400" fill="none" xmlns="http://www.w3.org/2000/svg">
<rect width="300" height="400" fill=""/>
<path d="M103.319 224.991L102.101 224.039C102.773 223.171 103.641 222.583 105.097 222.583C106.987 222.583 108.219 223.591 108.219 225.103V225.243C108.219 226.041 107.911 227.119 106.763 227.553C108.093 227.791 108.723 228.687 108.723 229.835V230.045C108.723 231.571 107.533 232.985 105.055 232.985C103.879 232.985 102.773 232.621 101.821 231.865L102.703 230.465C103.683 231.179 104.257 231.389 105.069 231.389C106.329 231.389 106.917 230.843 106.917 229.961V229.779C106.917 228.799 106.371 228.351 105.083 228.351H103.725V226.811H104.929C106.189 226.811 106.469 226.223 106.469 225.355V225.243C106.469 224.487 105.937 224.151 105.097 224.151C104.243 224.151 103.767 224.501 103.319 224.991ZM117.908 226.993V228.561C117.908 231.417 116.676 232.985 114.254 232.985C111.86 232.985 110.488 231.389 110.488 228.561V226.993C110.488 224.165 111.86 222.583 114.212 222.583C116.592 222.583 117.908 224.165 117.908 226.993ZM116.102 228.575V226.979C116.102 224.669 115.192 224.277 114.212 224.277C113.288 224.277 112.294 224.683 112.294 226.979V228.575C112.294 230.899 113.33 231.291 114.254 231.291C115.234 231.291 116.102 230.913 116.102 228.575ZM126.59 226.993V228.561C126.59 231.417 125.358 232.985 122.936 232.985C120.542 232.985 119.17 231.389 119.17 228.561V226.993C119.17 224.165 120.542 222.583 122.894 222.583C125.274 222.583 126.59 224.165 126.59 226.993ZM124.784 228.575V226.979C124.784 224.669 123.874 224.277 122.894 224.277C121.97 224.277 120.976 224.683 120.976 226.979V228.575C120.976 230.899 122.012 231.291 122.936 231.291C123.916 231.291 124.784 230.913 124.784 228.575ZM135.272 226.993V228.561C135.272 231.417 134.04 232.985 131.618 232.985C129.224 232.985 127.852 231.389 127.852 228.561V226.993C127.852 224.165 129.224 222.583 131.576 222.583C133.956 222.583 135.272 224.165 135.272 226.993ZM133.466 228.575V226.979C133.466 224.669 132.556 224.277 131.576 224.277C130.652 224.277 129.658 224.683 129.658 226.979V228.575C129.658 230.899 130.694 231.291 131.618 231.291C132.598 231.291 133.466 230.913 133.466 228.575ZM146.739 225.117L144.373 228.827L146.809 232.831H144.709L143.183 230.017L141.643 232.831H139.655L142.147 228.827L139.753 225.117H141.867L143.309 227.693L144.793 225.117H146.739ZM155.796 226.265H157.56V229.289H158.932V230.731H157.56V232.831H155.796V230.731H150.77V229.569L155.362 222.737H157.294L152.884 229.289H155.796V226.265ZM167.291 226.993V228.561C167.291 231.417 166.059 232.985 163.637 232.985C161.243 232.985 159.871 231.389 159.871 228.561V226.993C159.871 224.165 161.243 222.583 163.595 222.583C165.975 222.583 167.291 224.165 167.291 226.993ZM165.485 228.575V226.979C165.485 224.669 164.575 224.277 163.595 224.277C162.671 224.277 161.677 224.683 161.677 226.979V228.575C161.677 230.899 162.713 231.291 163.637 231.291C164.617 231.291 165.485 230.913 165.485 228.575ZM175.973 226.993V228.561C175.973 231.417 174.741 232.985 172.319 232.985C169.925 232.985 168.553 231.389 168.553 228.561V226.993C168.553 224.165 169.925 222.583 172.277 222.583C174.657 222.583 175.973 224.165 175.973 226.993ZM174.167 228.575V226.979C174.167 224.669 173.257 224.277 172.277 224.277C171.353 224.277 170.359 224.683 170.359 226.979V228.575C170.359 230.899 171.395 231.291 172.319 231.291C173.299 231.291 174.167 230.913 174.167 228.575ZM184.654 226.993V228.561C184.654 231.417 183.422 232.985 181 232.985C178.606 232.985 177.234 231.389 177.234 228.561V226.993C177.234 224.165 178.606 222.583 180.958 222.583C183.338 222.583 184.654 224.165 184.654 226.993ZM182.848 228.575V226.979C182.848 224.669 181.938 224.277 180.958 224.277C180.034 224.277 179.04 224.683 179.04 226.979V228.575C179.04 230.899 180.076 231.291 181 231.291C181.98 231.291 182.848 230.913 182.848 228.575ZM193.616 232.943C192.692 232.943 192.006 232.593 191.6 232.047V235.827H189.836V225.117H191.53V225.957C192.062 225.173 192.986 224.949 193.7 224.949C195.73 224.949 196.724 226.265 196.724 228.239V229.597C196.724 231.669 195.506 232.943 193.616 232.943ZM194.974 229.401V228.519C194.974 227.217 194.498 226.461 193.364 226.461C192.188 226.461 191.572 227.231 191.572 228.281V229.919C191.572 230.633 192.342 231.445 193.406 231.445C194.428 231.445 194.974 230.689 194.974 229.401ZM204.503 225.117L202.137 228.827L204.573 232.831H202.473L200.947 230.017L199.407 232.831H197.419L199.911 228.827L197.517 225.117H199.631L201.073 227.693L202.557 225.117H204.503Z" fill="#A8A8A8"/>
<path d="M191.387 127.824H108.314C106.561 127.824 104.88 128.52 103.641 129.76C102.402 130.999 101.706 132.68 101.706 134.432V202.401C101.706 204.154 102.402 205.834 103.641 207.074C104.88 208.313 106.561 209.009 108.314 209.009H191.387C193.139 209.009 194.82 208.313 196.059 207.074C197.298 205.834 197.995 204.154 197.995 202.401V134.432C197.995 132.68 197.298 130.999 196.059 129.76C194.82 128.52 193.139 127.824 191.387 127.824ZM108.314 133.488H191.387C191.637 133.488 191.877 133.588 192.054 133.765C192.231 133.942 192.331 134.182 192.331 134.432V185.206L178.421 171.296C177.807 170.682 177.078 170.195 176.277 169.863C175.475 169.531 174.616 169.36 173.748 169.36C172.88 169.36 172.021 169.531 171.219 169.863C170.417 170.195 169.688 170.682 169.075 171.296L158.965 181.406L137.531 159.968C136.917 159.354 136.189 158.867 135.387 158.535C134.585 158.203 133.726 158.032 132.858 158.032C131.99 158.032 131.131 158.203 130.329 158.535C129.527 158.867 128.799 159.354 128.185 159.968L107.37 180.783V134.432C107.37 134.182 107.469 133.942 107.646 133.765C107.823 133.588 108.063 133.488 108.314 133.488ZM107.37 202.401V188.793L132.188 163.975C132.275 163.887 132.38 163.816 132.495 163.768C132.61 163.721 132.733 163.696 132.858 163.696C132.983 163.696 133.106 163.721 133.221 163.768C133.336 163.816 133.44 163.887 133.528 163.975L172.898 203.345H108.314C108.063 203.345 107.823 203.246 107.646 203.069C107.469 202.892 107.37 202.651 107.37 202.401ZM191.387 203.345H180.908L162.972 185.409L173.077 175.299C173.165 175.211 173.269 175.141 173.384 175.094C173.498 175.046 173.621 175.022 173.745 175.022C173.869 175.022 173.992 175.046 174.107 175.094C174.221 175.141 174.326 175.211 174.413 175.299L192.349 193.235V202.401C192.349 202.527 192.324 202.651 192.276 202.767C192.227 202.882 192.156 202.987 192.066 203.075C191.977 203.163 191.87 203.232 191.754 203.279C191.637 203.325 191.512 203.348 191.387 203.345ZM158.346 155.201C158.346 154.267 158.623 153.354 159.142 152.578C159.66 151.802 160.397 151.197 161.26 150.84C162.122 150.483 163.071 150.389 163.987 150.571C164.903 150.753 165.744 151.203 166.404 151.863C167.064 152.523 167.513 153.364 167.696 154.28C167.878 155.195 167.784 156.144 167.427 157.007C167.07 157.869 166.465 158.606 165.689 159.125C164.912 159.644 164 159.921 163.066 159.921C161.814 159.921 160.614 159.423 159.729 158.538C158.843 157.653 158.346 156.452 158.346 155.201Z" fill="url(#paint0_linear_1270_37)"/>
<path d="M65.3417 259.967L63.1017 261.627L62.0817 259.687L64.8017 258.707L62.0817 257.747L63.1017 255.807L65.3217 257.467L65.0017 254.807H67.1217L66.7817 257.467L69.0217 255.807L70.0217 257.747L67.3017 258.707L70.0217 259.687L69.0217 261.627L66.7817 259.967L67.1217 262.607H65.0017L65.3417 259.967Z" fill="#C41F1F"/>
<path d="M81.64 265.813H78.084V268.347H83.166V269.845H71.238V268.347H76.32V265.813H72.764V259.499H81.472V260.997H74.528V264.315H81.64V265.813ZM90.6302 263.923V262.383H93.1922V258.463H94.9702V271.483H93.1922V263.923H90.6302ZM89.8182 265.015C90.4202 265.673 91.1482 266.387 91.8762 267.045L90.7422 268.235C90.1122 267.647 89.4962 267.031 88.9782 266.499C88.4462 265.953 88.0402 265.491 87.9422 265.253H87.9142C87.8302 265.505 87.3262 266.079 86.8642 266.555C86.3462 267.101 85.8002 267.633 85.0022 268.375L83.8402 267.171C84.6242 266.471 85.3382 265.771 85.9402 265.113C86.7522 264.217 87.0182 263.531 87.0182 262.383V259.387H88.8242V262.383C88.8242 263.489 88.9782 264.105 89.8182 265.015ZM100.222 268.361H103.428V265.953H101.44V264.483H103.12V260.955H101.524V259.485H110.82V260.955H109.28V264.483H110.932V265.953H108.944V268.361H112.15V269.845H100.222V268.361ZM104.87 260.955V264.483H107.53V260.955H104.87ZM105.164 265.953V268.361H107.208V265.953H105.164ZM113.595 261.095V259.583H120.539V261.095H118.019V262.579C118.019 263.671 118.187 264.245 119.027 265.155C119.629 265.813 120.357 266.527 121.057 267.157L119.923 268.333C119.321 267.773 118.705 267.157 118.187 266.625C117.655 266.079 117.249 265.617 117.151 265.393H117.123C116.997 265.659 116.521 266.205 116.059 266.681C115.541 267.227 115.009 267.759 114.239 268.473L113.077 267.283C113.833 266.611 114.547 265.911 115.149 265.253C115.975 264.329 116.227 263.741 116.227 262.579V261.095H113.595ZM123.927 258.463V271.483H122.149V258.463H123.927ZM136.039 258.463V263.209H137.831V264.749H136.039V271.483H134.261V258.463H136.039ZM126.939 268.795L126.001 267.395C130.215 264.889 130.453 264.175 130.453 262.103V261.165H126.239V259.639H132.231V262.187C132.231 265.015 131.587 265.953 126.939 268.795ZM152.281 258.463V263.209H154.073V264.749H152.281V271.483H150.503V258.463H152.281ZM143.181 268.795L142.243 267.395C146.457 264.889 146.695 264.175 146.695 262.103V261.165H142.481V259.639H148.473V262.187C148.473 265.015 147.829 265.953 143.181 268.795ZM154.691 264.707H166.619V266.163H154.691V264.707ZM156.245 268.655V267.199H165.009V271.637H163.245V268.655H156.245ZM164.813 258.925V260.381H158.135V262.215H164.911V263.671H156.385V258.925H164.813ZM171.381 261.291V259.793H174.027V258.351H175.791V259.793H178.297V261.291H175.791V261.963C175.791 262.649 175.959 263.055 176.701 263.629C177.289 264.077 177.989 264.553 178.689 265.001L177.737 266.247C177.121 265.841 176.533 265.435 176.015 265.057C175.427 264.623 175.063 264.301 175.007 264.161H174.993C174.937 264.329 174.545 264.707 173.901 265.211C173.299 265.687 172.683 266.163 171.983 266.653L170.947 265.365C171.829 264.763 172.669 264.119 173.257 263.601C173.761 263.167 174.027 262.649 174.027 261.963V261.291H171.381ZM181.265 258.463V262.005H182.973V263.545H181.265V267.787H179.501V258.463H181.265ZM174.937 267.115V269.831H181.573V271.343H173.159V267.115H174.937ZM191.194 268.417C188.814 268.417 187.834 266.835 187.834 264.651V263.097C187.834 260.913 188.814 259.331 191.194 259.331C193.574 259.331 194.554 260.913 194.554 263.097V264.651C194.554 266.835 193.574 268.417 191.194 268.417ZM191.194 260.885C190.004 260.885 189.528 261.725 189.528 263.307V264.441C189.528 266.023 190.004 266.863 191.194 266.863C192.384 266.863 192.86 266.023 192.86 264.441V263.307C192.86 261.725 192.384 260.885 191.194 260.885ZM198.138 258.463V271.483H196.36V258.463H198.138ZM210.88 258.463V271.483H209.102V258.463H210.88ZM200.786 259.597H207.1V268.095H200.786V259.597ZM205.336 266.597V261.095H202.55V266.597H205.336ZM213.29 261.095V259.583H220.234V261.095H217.714V262.579C217.714 263.671 217.882 264.245 218.722 265.155C219.324 265.813 220.052 266.527 220.752 267.157L219.618 268.333C219.016 267.773 218.4 267.157 217.882 266.625C217.35 266.079 216.944 265.617 216.846 265.393H216.818C216.692 265.659 216.216 266.205 215.754 266.681C215.236 267.227 214.704 267.759 213.934 268.473L212.772 267.283C213.528 266.611 214.242 265.911 214.844 265.253C215.67 264.329 215.922 263.741 215.922 262.579V261.095H213.29ZM223.622 258.463V271.483H221.844V258.463H223.622ZM226.97 266.401H235.664V269.635H228.748V270.279H236.042V271.609H227.04V268.361H233.956V267.731H226.97V266.401ZM225.402 264.441H237.33V265.785H225.402V264.441ZM235.818 263.825H227.068V260.619H233.886V260.031H227.026V258.701H235.594V261.893H228.776V262.495H235.818V263.825ZM109.28 280.525H121.208V281.967H109.28V280.525ZM115.244 287.875C112.976 287.875 111.044 287.105 111.044 285.481V285.061C111.044 283.437 112.976 282.667 115.244 282.667C117.512 282.667 119.444 283.437 119.444 285.061V285.481C119.444 287.105 117.512 287.875 115.244 287.875ZM115.244 284.095C113.998 284.095 112.794 284.515 112.794 285.173V285.369C112.794 286.027 113.998 286.447 115.244 286.447C116.49 286.447 117.694 286.027 117.694 285.369V285.173C117.694 284.515 116.49 284.095 115.244 284.095ZM119.402 274.925V276.367H112.724V278.131H119.5V279.573H110.974V274.925H119.402ZM132.438 280.399H128.868V281.281H133.95V282.695H122.022V281.281H127.104V280.399H123.688V276.941H130.478V276.227H123.646V274.827H132.214V278.285H125.424V278.999H132.438V280.399ZM123.576 284.907V283.479H132.34V287.651H130.576V284.907H123.576ZM143.416 274.729V279.167H144.522V274.463H146.202V287.483H144.522V280.693H143.416V286.853H141.736V274.729H143.416ZM138.04 284.263C136.164 284.263 135.142 282.989 135.142 281.729V281.057C135.142 279.797 136.164 278.523 138.04 278.523C139.916 278.523 140.938 279.797 140.938 281.057V281.729C140.938 282.989 139.916 284.263 138.04 284.263ZM134.694 276.563H137.158V274.827H138.88V276.563H141.092V278.019H134.694V276.563ZM138.04 279.937C137.13 279.937 136.682 280.637 136.682 281.155V281.631C136.682 282.149 137.13 282.849 138.04 282.849C138.95 282.849 139.398 282.149 139.398 281.631V281.155C139.398 280.637 138.95 279.937 138.04 279.937ZM148.977 276.675V275.177H157.965V276.675H154.381V276.787C154.381 277.445 154.689 277.893 155.487 278.285C156.397 278.733 157.573 279.223 158.623 279.629L157.937 281.015C156.915 280.609 155.907 280.161 155.011 279.755C154.199 279.391 153.653 279.055 153.513 278.789H153.499C153.359 279.055 152.743 279.419 151.931 279.783C151.035 280.189 150.027 280.637 149.005 281.043L148.319 279.629C149.369 279.223 150.545 278.733 151.455 278.285C152.253 277.893 152.561 277.445 152.561 276.787V276.675H148.977ZM147.507 281.757H159.435V283.255H154.367V287.483H152.589V283.255H147.507V281.757ZM167.277 286.853V280.035H165.527V278.495H167.277V274.729H168.957V286.853H167.277ZM162.559 278.635V275.499H164.309V278.635C164.309 279.699 164.561 280.273 165.149 281.001C165.667 281.645 166.325 282.359 166.969 283.003L165.807 284.081C165.205 283.465 164.673 282.891 164.253 282.401C163.833 281.911 163.609 281.617 163.525 281.421H163.511C163.441 281.617 163.133 282.051 162.783 282.457C162.405 282.891 161.691 283.689 161.061 284.305L159.871 283.157C160.473 282.569 161.173 281.813 161.705 281.141C162.363 280.301 162.559 279.755 162.559 278.635ZM171.603 274.463V287.483H169.923V274.463H171.603ZM172.991 284.361H175.791V281.421C174.979 280.847 174.489 280.007 174.489 279.013V278.369C174.489 276.395 176.407 275.079 178.955 275.079C181.503 275.079 183.421 276.395 183.421 278.369V279.013C183.421 280.021 182.931 280.847 182.119 281.421V284.361H184.919V285.845H172.991V284.361ZM178.955 276.563C177.499 276.563 176.225 277.319 176.225 278.467V278.915C176.225 280.063 177.499 280.819 178.955 280.819C180.411 280.819 181.685 280.063 181.685 278.915V278.467C181.685 277.319 180.411 276.563 178.955 276.563ZM178.955 282.303C178.451 282.303 177.975 282.247 177.527 282.149V284.361H180.383V282.149C179.935 282.247 179.459 282.303 178.955 282.303ZM186.839 286.475V284.655H188.617V286.475H186.839Z" fill="#A8A8A8"/>
<defs>
<linearGradient id="paint0_linear_1270_37" x1="149.85" y1="127.824" x2="149.85" y2="209.009" gradientUnits="userSpaceOnUse">
<stop stop-color="#825D99"/>
<stop offset="1" stop-color="#FB8500"/>
</linearGradient>
</defs>
</svg>
