<svg width="201" height="182" viewBox="0 0 201 182" fill="none" xmlns="http://www.w3.org/2000/svg">
<rect width="201" height="182" fill="none"/>
<path d="M133.204 110.34H126.429L124.027 108.024C132.723 97.9384 137.502 85.0626 137.492 71.7462C137.492 60.7206 134.223 49.9427 128.097 40.7753C121.972 31.6079 113.266 24.4627 103.079 20.2434C92.893 16.0242 81.6843 14.9202 70.8706 17.0712C60.0569 19.2221 50.1239 24.5315 42.3277 32.3277C34.5315 40.1239 29.2221 50.0569 27.0712 60.8706C24.9202 71.6843 26.0242 82.893 30.2434 93.0793C34.4627 103.266 41.6079 111.972 50.7753 118.097C59.9427 124.223 70.7206 127.492 81.7462 127.492C95.554 127.492 108.247 122.432 118.024 114.027L120.34 116.429V123.204L163.221 166L176 153.221L133.204 110.34ZM81.7462 110.34C60.3911 110.34 43.1527 93.1012 43.1527 71.7462C43.1527 50.3911 60.3911 33.1527 81.7462 33.1527C103.101 33.1527 120.34 50.3911 120.34 71.7462C120.34 93.1012 103.101 110.34 81.7462 110.34Z" fill="url(#paint0_linear_241_3)"/>
<defs>
<linearGradient id="paint0_linear_241_3" x1="101" y1="16" x2="101" y2="166" gradientUnits="userSpaceOnUse">
<stop offset="0.38" stop-color="#4D4ABF"/>
<stop offset="1" stop-color="#FB8500"/>
</linearGradient>
</defs>
</svg>
